<!-- Generator: Adobe Illustrator 25.1.0, SVG Export Plug-In  -->
<svg version="1.1" xmlns="http://www.w3.org/2000/svg" xmlns:xlink="http://www.w3.org/1999/xlink" x="0px" y="0px"
	 width="2439.56px" height="1759.1px" viewBox="0 0 2439.56 1759.1"
	 style="overflow:visible;enable-background:new 0 0 2439.56 1759.1;" xml:space="preserve">
<style type="text/css">
	.st0{fill:none;stroke:#5A5A5A;stroke-width:25;stroke-miterlimit:10;}
</style>
<defs>
</defs>
<g>
	<g>
		<path class="st0" d="M1359.47,963.57c41.15-0.64,82.3-1.28,123.45-1.92c-3.14-125.13-6.28-250.26-9.42-375.39l-176.21-95.36
			l-2.07-184.51L1110.7,200.66l-155.48,89.14v199.02l169.99,99.51l2.07,186.58l188.65,103.66L1359.47,963.57l-93.29,4.15
			l-47.12,74.63l-52.39-76.7h-93.29l47.68-87.07l180.36-97.44v-192.8l181.49-103.66V296.03c-54.69-33.78-109.39-67.55-164.08-101.33
			c-65.23,36.54-130.47,73.08-195.7,109.62v192.8l-167.92,99.51c0.8,122.69,1.6,245.38,2.41,368.07
			c38.59,0.31,77.17,0.63,115.76,0.94"/>
		<polygon class="st0" points="963.27,681.74 1037.61,728.6 1210.53,633.25 1380.23,728.6 1556.39,639.72 1622.65,536.28 
			1567.7,447.4 1383.46,348.81 1212.15,444.17 1042.46,348.81 867.91,439.32 803.27,538.71 863.07,628.4 		"/>
		<polyline class="st0" points="955.22,289.81 955.22,111.24 1158.82,111.24 1212.96,23.97 1265.48,111.24 1482.92,106.39 
			1482.92,296.03 		"/>
		<line class="st0" x1="1110.7" y1="200.66" x2="1063.47" y2="111.24"/>
		<path class="st0" d="M955.22,790.02"/>
		<line class="st0" x1="955.22" y1="790.02" x2="1121.07" y2="878.57"/>
		<line class="st0" x1="1315.94" y1="878.57" x2="1478.49" y2="785.3"/>
		<line class="st0" x1="1368.58" y1="108.94" x2="1318.84" y2="194.7"/>
	</g>
	<g>
		<path class="st0" d="M101.54,682.22c0.64,41.15,1.28,82.3,1.92,123.45c125.13-3.14,250.26-6.28,375.39-9.42l95.36-176.21
			l184.51-2.07l105.73-184.51L775.3,277.97H576.28l-99.51,169.99l-186.58,2.07L186.54,638.69L101.54,682.22l-4.15-93.29
			l-74.63-47.12l76.71-52.39v-93.29l87.07,47.68l97.44,180.36h192.8l103.66,181.49h188.65c33.78-54.69,67.55-109.39,101.33-164.08
			c-36.54-65.23-73.08-130.47-109.62-195.7h-192.8l-99.51-167.92c-122.69,0.8-245.38,1.6-368.07,2.41
			c-0.31,38.59-0.63,77.17-0.94,115.76"/>
		<polygon class="st0" points="383.37,286.02 336.51,360.36 431.86,533.28 336.51,702.98 425.39,879.14 528.83,945.4 617.71,890.45 
			716.3,706.21 620.94,534.9 716.3,365.21 625.79,190.67 526.4,126.02 436.71,185.82 		"/>
		<polyline class="st0" points="775.3,277.97 953.87,277.97 953.87,481.57 1041.14,535.71 953.87,588.23 958.72,805.67 
			769.08,805.67 		"/>
		<line class="st0" x1="864.45" y1="433.45" x2="953.87" y2="386.22"/>
		<path class="st0" d="M275.09,277.97"/>
		<line class="st0" x1="275.09" y1="277.97" x2="186.54" y2="443.82"/>
		<line class="st0" x1="186.54" y1="638.69" x2="279.81" y2="801.24"/>
		<line class="st0" x1="956.17" y1="691.33" x2="870.41" y2="641.59"/>
	</g>
	<g>
		<path class="st0" d="M1475.99,682.22c0.64,41.15,1.28,82.3,1.92,123.45c125.13-3.14,250.26-6.28,375.39-9.42l95.36-176.21
			l184.51-2.07l105.73-184.51l-89.14-155.48h-199.02l-99.51,169.99l-186.58,2.07l-103.66,188.65L1475.99,682.22l-4.15-93.29
			l-74.63-47.12l76.7-52.39v-93.29l87.07,47.68l97.44,180.36h192.8l103.66,181.49h188.65c33.78-54.69,67.55-109.39,101.33-164.08
			c-36.54-65.23-73.08-130.47-109.62-195.7h-192.8l-99.51-167.92c-122.69,0.8-245.38,1.6-368.07,2.41
			c-0.31,38.59-0.63,77.17-0.94,115.76"/>
		<polygon class="st0" points="1757.82,286.02 1710.96,360.36 1806.31,533.28 1710.96,702.98 1799.84,879.14 1903.28,945.4 
			1992.16,890.45 2090.75,706.21 1995.39,534.9 2090.75,365.21 2000.24,190.67 1900.85,126.02 1811.16,185.82 		"/>
		<polyline class="st0" points="2149.75,277.97 2328.32,277.97 2328.32,481.57 2415.59,535.71 2328.32,588.23 2333.17,805.67 
			2143.53,805.67 		"/>
		<line class="st0" x1="2238.9" y1="433.45" x2="2328.32" y2="386.22"/>
		<path class="st0" d="M1649.54,277.97"/>
		<line class="st0" x1="1649.54" y1="277.97" x2="1560.99" y2="443.82"/>
		<line class="st0" x1="1560.99" y1="638.69" x2="1654.26" y2="801.24"/>
		<line class="st0" x1="2330.62" y1="691.33" x2="2244.86" y2="641.59"/>
	</g>
	<g>
		<path class="st0" d="M789.66,1379.22c0.64,41.15,1.28,82.3,1.92,123.45c125.13-3.14,250.26-6.28,375.39-9.42l95.36-176.21
			l184.51-2.07l105.73-184.51l-89.14-155.48H1264.4l-99.51,169.99l-186.58,2.07l-103.66,188.65L789.66,1379.22l-4.15-93.29
			l-74.63-47.12l76.71-52.39v-93.29l87.07,47.68l97.44,180.36h192.8l103.66,181.49h188.65c33.78-54.69,67.55-109.39,101.33-164.08
			c-36.54-65.23-73.08-130.47-109.62-195.7h-192.8l-99.51-167.92c-122.69,0.8-245.38,1.6-368.07,2.41
			c-0.31,38.59-0.63,77.17-0.94,115.76"/>
		<polygon class="st0" points="1071.49,983.01 1024.62,1057.35 1119.97,1230.28 1024.62,1399.97 1113.51,1576.13 1216.94,1642.39 
			1305.83,1587.44 1404.41,1403.2 1309.06,1231.89 1404.41,1062.2 1313.91,887.66 1214.52,823.01 1124.82,882.81 		"/>
		<polyline class="st0" points="1463.42,974.96 1641.98,974.96 1641.98,1178.56 1729.25,1232.7 1641.98,1285.23 1646.83,1502.66 
			1457.2,1502.66 		"/>
		<line class="st0" x1="1552.56" y1="1130.44" x2="1641.98" y2="1083.21"/>
		<path class="st0" d="M963.21,974.96"/>
		<line class="st0" x1="963.21" y1="974.96" x2="874.66" y2="1140.81"/>
		<line class="st0" x1="874.66" y1="1335.68" x2="967.93" y2="1498.24"/>
		<line class="st0" x1="1644.28" y1="1388.32" x2="1558.53" y2="1338.59"/>
	</g>
	<g>
		<path class="st0" d="M667.28,1657.56c41.15-0.64,82.3-1.28,123.45-1.92c-3.14-125.13-6.28-250.26-9.42-375.39l-176.21-95.36
			l-2.07-184.51L418.5,894.66L263.02,983.8v199.02l169.99,99.51l2.07,186.58l188.65,103.66L667.28,1657.56l-93.29,4.15l-47.12,74.63
			l-52.39-76.7h-93.29l47.68-87.07l180.36-97.44v-192.8l181.49-103.66V990.02c-54.69-33.78-109.39-67.55-164.08-101.33
			c-65.23,36.54-130.47,73.08-195.7,109.62v192.8l-167.92,99.51c0.8,122.69,1.6,245.38,2.41,368.07
			c38.59,0.31,77.17,0.63,115.76,0.94"/>
		<polygon class="st0" points="271.07,1375.73 345.41,1422.6 518.34,1327.25 688.03,1422.6 864.19,1333.71 930.45,1230.28 
			875.5,1141.39 691.26,1042.81 519.95,1138.16 350.26,1042.81 175.72,1133.31 111.07,1232.7 170.87,1322.4 		"/>
		<polyline class="st0" points="263.02,983.8 263.02,805.24 466.62,805.24 520.76,717.97 573.29,805.24 790.72,800.39 
			790.72,990.02 		"/>
		<line class="st0" x1="418.5" y1="894.66" x2="371.27" y2="805.24"/>
		<path class="st0" d="M263.02,1484.01"/>
		<line class="st0" x1="263.02" y1="1484.01" x2="428.87" y2="1572.56"/>
		<line class="st0" x1="623.74" y1="1572.56" x2="786.3" y2="1479.29"/>
		<line class="st0" x1="676.38" y1="802.94" x2="626.65" y2="888.69"/>
	</g>
	<g>
		<path class="st0" d="M2047.37,1657.56c41.15-0.64,82.3-1.28,123.45-1.92c-3.14-125.13-6.28-250.26-9.42-375.39l-176.21-95.36
			l-2.07-184.51l-184.51-105.73l-155.48,89.14v199.02l169.99,99.51l2.07,186.58l188.65,103.66L2047.37,1657.56l-93.29,4.15
			l-47.12,74.63l-52.39-76.7h-93.29l47.68-87.07l180.36-97.44v-192.8l181.49-103.66V990.02c-54.69-33.78-109.39-67.55-164.08-101.33
			c-65.23,36.54-130.47,73.08-195.7,109.62v192.8l-167.92,99.51c0.8,122.69,1.6,245.38,2.41,368.07
			c38.59,0.31,77.17,0.63,115.76,0.94"/>
		<polygon class="st0" points="1651.16,1375.73 1725.5,1422.6 1898.43,1327.25 2068.12,1422.6 2244.28,1333.71 2310.54,1230.28 
			2255.59,1141.39 2071.35,1042.81 1900.04,1138.16 1730.35,1042.81 1555.81,1133.31 1491.16,1232.7 1550.96,1322.4 		"/>
		<polyline class="st0" points="1643.11,983.8 1643.11,805.24 1846.71,805.24 1900.85,717.97 1953.38,805.24 2170.81,800.39 
			2170.81,990.02 		"/>
		<line class="st0" x1="1798.59" y1="894.66" x2="1751.36" y2="805.24"/>
		<path class="st0" d="M1643.11,1484.01"/>
		<line class="st0" x1="1643.11" y1="1484.01" x2="1808.96" y2="1572.56"/>
		<line class="st0" x1="2003.83" y1="1572.56" x2="2166.38" y2="1479.29"/>
		<line class="st0" x1="2056.47" y1="802.94" x2="2006.73" y2="888.69"/>
	</g>
</g>
</svg>
