<!-- Generator: Adobe Illustrator 25.1.0, SVG Export Plug-In  -->
<svg version="1.1" xmlns="http://www.w3.org/2000/svg" xmlns:xlink="http://www.w3.org/1999/xlink" x="0px" y="0px"
	 width="408.53px" height="828.93px" viewBox="0 0 408.53 828.93"
	 style="overflow:visible;enable-background:new 0 0 408.53 828.93;" xml:space="preserve">
<style type="text/css">
	.st0{opacity:0.5;fill:#DEDEDE;}
</style>
<defs>
</defs>
<path class="st0" d="M251.15,7.56l-41.5-7.01c-6.16-2.01-11.78,1.75-12.4,5.93c-0.46,3.16,1.9,6.9,5.93,8.62
	c-11.14,52.28-22.28,104.56-33.42,156.84h-14.01l-42.58,173c-0.4,1.47-1.64,6.78,1.08,12.4c3.78,7.8,11.98,9.52,12.93,9.7
	c-1.26,4.85-2.52,9.7-3.77,14.55l-54.43-10.78l-9.7,43.66l52.82,10.24l-7.55,45.27c3.86,2.81,10.64,6.99,20.03,9.14
	c11.72,2.67,21.43,0.79,26.32-0.51c3.23-14.73,6.47-29.46,9.7-44.19l50.12,10.78l8.08-43.66l-8.08-2.16l3.23-15.63
	c3.41,0.48,9.07,0.81,15.63-1.08c9.92-2.85,15.93-9.07,18.32-11.86c0.41-0.55,5.66-7.43,14.55-7.01c6.2,0.29,11.79,4.03,14.55,9.7
	c7.2,9.68,17.49,26.01,23.71,48.51c4.87,17.6,4.61,30.86,4.31,56.59c-0.35,30.23-3.22,48.64-5.06,54.81
	c-2.72,9.11-7.52,19.14-10.5,21.94c-2.26,2.67-5.66,5.5-8.74,3.66c-2.91-1.74-2.66-3.26-5.89-7.11c-1.08-1.28-2.92-3.12-5.66-4.61
	c-3.65-1.98-7.05-2.34-8.89-2.39c-17.79-2.52-35.57-5.03-53.36-7.55L30.72,515.8c-11.27-1.32-18.46-0.46-20.09,4.27
	c-1.85,5.37,2.59,7.88,12.54,10.82c67.91,17.07,135.82,34.13,203.73,51.2l-5.35,36.28c-2.15,0.55-5.4,1.05-9.06,0.23
	c-4.61-1.04-6.62-3.46-11.35-5.95c-2.7-1.42-6.79-3.14-12.46-3.98c0.35-8.5,0.69-17,1.04-25.5c-3.03-1.35-7.52-2.95-13.15-3.58
	c-5.06-0.57-9.36-0.18-12.45,0.35c-1.8,8.26-3.6,16.52-5.4,24.78c-5.29-0.35-10.59-0.71-15.88-1.06l0.54-35.03
	c-3.62-1.36-9.13-2.93-15.95-3.03c-4.85-0.07-8.97,0.63-12.07,1.41c-1.8,11.14-3.59,22.28-5.39,33.42l-18.86-0.54l0.54-25.33
	c-2.24-0.98-6.19-2.36-11.27-2.34c-4.23,0.02-7.61,1-9.75,1.8c-1.44,7.73-2.87,15.45-4.31,23.18l-18.32,0.54l-1.08,49.04
	l165.46,12.4l-5.93,40.42l6.47,7.01l-3.77,29.64L2.16,740L0,828.93l408.53-3.23l-2.69-90.54l-71.14-1.08l-11.86-81.92
	c15.85-18.21,38.42-48.68,54.01-91.62c18.54-51.04,18.52-95.78,16.59-121.38c-0.89-9.11-3.05-22.85-8.96-38.42
	c-7.43-19.55-17.35-32.94-50.95-72.32c-11.58-13.57-25.29-29.43-40.88-47.06c1.52-3.43,8.25-19.64,1.33-38.16
	c-8.62-23.08-31.1-30.07-33.67-30.83c-0.36-4.49-0.72-8.98-1.08-13.47l33.95-164.92c5.72,1.96,11.2-1.69,11.86-5.93
	c0.57-3.71-2.49-8.19-7.55-9.16C282.05,15.11,266.6,11.34,251.15,7.56z"/>
</svg>
