<!-- Generator: Adobe Illustrator 25.1.0, SVG Export Plug-In  -->
<svg version="1.1" xmlns="http://www.w3.org/2000/svg" xmlns:xlink="http://www.w3.org/1999/xlink" x="0px" y="0px"
	 width="1073.37px" height="1073.37px" viewBox="0 0 1073.37 1073.37"
	 style="overflow:visible;enable-background:new 0 0 1073.37 1073.37;" xml:space="preserve">
<style type="text/css">
	.st0{fill:#FFFFFF;}
	.st1{fill:none;stroke:#FFFFFF;stroke-width:50;stroke-miterlimit:10;}
</style>
<defs>
</defs>
<g id="XMLID_1_">
	<g>
		<path class="st0" d="M543.29,619.74c-5.94-0.4-22.68-1.04-43.06,4.88c-12.75,3.7-35.63,10.33-51.59,31.32
			c-5.32,6.99-8.4,13.65-10.16,18.14c-1.05,2.58-2.31,6.15-3.24,10.53c-0.54,2.56-2.37,11.46-0.78,21.41
			c1.87,11.73,7.64,19.71,12.42,26.15c13.29,17.91,30.21,25.72,36.15,28.19c10.32,4.28,18.28,5.23,30.19,6.63
			c32.6,3.85,57.26-1.97,62.68-3.32c13.43-3.33,25.73-6.38,38.81-16.25c4.83-3.65,14.79-11.34,21.56-25.21
			c2.45-5.02,6.78-14.16,6.3-26.53c-0.42-10.87-4.34-18.72-6.3-22.56c-4.57-8.91-10.17-14.24-16.58-20.23
			c-4.71-4.39-12.35-10.81-23.22-16.91C571.41,621.9,548.07,620.06,543.29,619.74z M477.57,274.17
			c97.59-0.08,195.19-0.17,292.79-0.25c-1.82,2.04-4.75,5.13-8.68,8.54c-6.52,5.65-9.08,6.36-12.84,11.01
			c-1.65,2.03-4.65,5.81-6.14,11.5c-1.52,5.82-0.71,10.76,0.14,15.88c0.72,4.31,1.78,7.77,2.61,10.09
			c4.67,7.77,6.3,14.42,6.91,19.05c0.46,3.4,0.45,8.8,0.42,19.48c-0.01,4-0.05,7.32-0.08,9.62c0.61,19.67,1.23,39.35,1.84,59.02
			c0.74,25.05,1.49,50.1,2.23,75.15c-0.05,1.68-0.21,4.05-0.72,6.84c-1.05,5.75-2.25,12.32-7.22,16.56
			c-4.84,4.13-11.08,4.17-13.95,3.98c-5.37,0.28-8.67-1.32-10.34-2.36c-7.6-4.78-8.87-15.46-9.71-22.54
			c-0.4-3.37-0.41-6.2-0.35-8.18c0.27-23.31,0.54-46.62,0.81-69.93c0.88-18.2,1.42-36.71,1.58-55.54c0.02-2.64,0.04-5.27,0.05-7.89
			c-0.87-6.53-1.14-15.79,1.89-26.11c0.87-2.96,1.9-5.64,2.99-8.04c1.76-2.25,6.45-8.83,6.42-18.15c-0.02-4.82-1.3-8.68-2.35-11.13
			c-25.75,20.06-51.5,40.11-77.25,60.17c-0.08,1.35-0.14,3.32-0.04,5.69c0.4,8.92,2.85,15.36,4.64,20.33
			c1.94,5.4,5.37,14.94,6.84,21.38c5.7,24.93-7.68,48.09-10.27,52.57c-3.58,6.19-7.35,10.82-10.12,13.88
			c-10.81,9.93-19.3,17.49-24.44,22.04c-14.12,12.49-21.12,18.22-24.69,28.95c-1.79,5.39-2.1,10.16-2.1,13.25
			c4.54,14.76,11.4,23.61,16.96,29c6.37,6.18,11.42,8.22,25.3,18.8c7.43,5.66,13.28,10.64,17.1,14
			c10.01,7.96,16.14,16.01,19.71,21.44c19,28.97,19.54,66.86,6.26,95.42c-3.68,7.9-7.79,13.77-10.52,17.31
			c-4.88,6.02-11.74,13.51-20.96,20.89c-53.38,42.79-124.89,33.67-150.19,30.45c-10.2-1.3-21.48-2.8-35.85-7.7
			c-14.42-4.92-54.67-18.66-68.63-53.62c-4.38-10.96-4.76-20.49-4.82-22.72c-0.58-20.92,9.48-38.13,14.53-46.99
			c1.02-1.79,2.1-3.53,3.22-5.23c32.17-48.54,103.96-56.35,151.43-56.29c-5.29-7.28-18.18-27.17-15.31-52.47
			c0.69-6.1,2.18-11.49,3.93-16.07c-48.72,1.93-92.53-18.99-112.68-55.46c-11.28-20.43-12.48-40.9-11.88-53.9h-112.1L477.57,274.17z
			 M589.35,506.41c27.47-27.96,20.3-72.58,18.43-82.34c-1.93-10.09-5.06-18.69-8.27-25.66c-4.76-9.37-12.59-22.15-25.18-34.68
			c-8.25-8.21-15.81-15.72-27.95-20.32c-18.36-6.96-35.72-2.92-44.21-0.2c-10.82,5.47-17.7,12.13-22.09,17.6
			c-20.34,25.38-19.59,65.82-0.47,104.07c2.31,4.91,25.34,52.09,68.63,56.05c6.44,0.59,15.03,0.37,25.15-2.63
			C577.39,516.17,583.42,512.45,589.35,506.41z"/>
	</g>
	<g>
	</g>
</g>
<circle class="st1" cx="536.68" cy="536.68" r="511.68"/>
</svg>
