<!-- Generator: Adobe Illustrator 25.1.0, SVG Export Plug-In  -->
<svg version="1.1" xmlns="http://www.w3.org/2000/svg" xmlns:xlink="http://www.w3.org/1999/xlink" x="0px" y="0px"
	 width="699.39px" height="898.55px" viewBox="0 0 699.39 898.55"
	 style="overflow:visible;enable-background:new 0 0 699.39 898.55;" xml:space="preserve">
<style type="text/css">
	.st0{fill:none;stroke:#727272;stroke-width:20;stroke-linecap:round;stroke-miterlimit:10;}
	.st1{fill:#7B7B7B;stroke:#727272;stroke-width:20;stroke-linecap:round;stroke-miterlimit:10;}
	.st2{fill:#7B7B7B;stroke:#727272;stroke-width:30;stroke-miterlimit:10;}
	.st3{fill:#7B7B7B;stroke:#727272;stroke-width:20;stroke-miterlimit:10;}
	.st4{fill:none;stroke:#727272;stroke-width:30;stroke-miterlimit:10;}
</style>
<defs>
</defs>
<path class="st0" d="M402.79,700.51H295.78c-54.21,0-98.15-43.94-98.15-98.15V191.19c0-54.21,43.94-98.15,98.15-98.15h107.01
	c54.21,0,98.15,43.94,98.15,98.15v411.17C500.94,656.57,457,700.51,402.79,700.51z"/>
<line class="st1" x1="205.33" y1="215.91" x2="316.92" y2="215.91"/>
<line class="st1" x1="197.63" y1="285" x2="316.92" y2="285"/>
<line class="st1" x1="205.33" y1="351.96" x2="316.92" y2="351.96"/>
<line class="st1" x1="205.33" y1="417.85" x2="316.92" y2="417.85"/>
<line class="st1" x1="494.42" y1="215.91" x2="376.44" y2="215.91"/>
<line class="st1" x1="494.42" y1="285" x2="376.44" y2="285"/>
<line class="st1" x1="494.42" y1="351.96" x2="376.44" y2="351.96"/>
<line class="st1" x1="494.42" y1="417.85" x2="376.44" y2="417.85"/>
<line class="st1" x1="281.85" y1="103.32" x2="281.85" y2="171.34"/>
<line class="st1" x1="349.29" y1="93.04" x2="349.29" y2="172.34"/>
<line class="st1" x1="417.22" y1="94.1" x2="417.22" y2="172.34"/>
<line class="st2" x1="352.17" y1="708" x2="352.17" y2="869.55"/>
<ellipse class="st3" cx="346.68" cy="871.55" rx="176.43" ry="17.01"/>
<path class="st2" d="M574.76,285.02V175.38c60.14,0,109.63,49.49,109.63,109.63c0,59.06-47.72,108.05-106.76,109.6L574.76,285.02z"
	/>
<path class="st2" d="M124.63,285.02V175.38C64.49,175.38,15,224.87,15,285.02c0,59.06,47.72,108.05,106.76,109.6L124.63,285.02z"/>
<path class="st4" d="M352.17,553.89C536.93,574.75,594.78,446.08,586.88,285c-7.64-81.57-4.33-162.5-55.93-214.27
	c-57.2-57.39-135.34-55.87-181.67-55.69c-46.46,0.18-118.03,0.46-172.47,51.94c-83.4,78.87-54.77,204.72-52.19,218.04"/>
<circle class="st2" cx="352.17" cy="556.12" r="42.48"/>
</svg>
