<!-- Generator: Adobe Illustrator 25.1.0, SVG Export Plug-In  -->
<svg version="1.1" xmlns="http://www.w3.org/2000/svg" xmlns:xlink="http://www.w3.org/1999/xlink" x="0px" y="0px"
	 width="356.63px" height="524.81px" viewBox="0 0 356.63 524.81"
	 style="overflow:visible;enable-background:new 0 0 356.63 524.81;" xml:space="preserve">
<style type="text/css">
	.st0{fill:#676767;}
	.st1{fill:none;stroke:#363636;stroke-width:6;stroke-miterlimit:10;}
	.st2{fill:none;stroke:#000000;stroke-width:6;stroke-miterlimit:10;}
	.st3{fill:none;stroke:#000000;stroke-width:4;stroke-miterlimit:10;}
	.st4{fill:none;stroke:#000000;stroke-width:3;stroke-miterlimit:10;}
	.st5{fill:none;stroke:#000000;stroke-width:2;stroke-miterlimit:10;}
	.st6{fill:none;stroke:#000000;stroke-width:8;stroke-miterlimit:10;}
</style>
<defs>
</defs>
<g id="XMLID_1_">
	<g>
		<path class="st0" d="M155.02,267.95c3.96,6.8,6.23,14.74,6.23,23.23c0,25.08-19.84,45.42-44.31,45.42
			c-24.48,0-44.32-20.34-44.32-45.42c0-25.08,19.84-45.41,44.32-45.41C133.13,245.77,147.29,254.67,155.02,267.95z"/>
		<path class="st0" d="M237.14,245.77c24.48,0,44.32,20.33,44.32,45.41c0,25.08-19.84,45.42-44.32,45.42
			c-24.47,0-44.31-20.34-44.31-45.42C192.83,266.1,212.67,245.77,237.14,245.77z"/>
		<path class="st0" d="M340.33,220.77c8.6,1.89,15.15,11.95,12.83,23.07c0.86,14.67,0.08,34.32-6.62,56.07
			c-2.19,7.13-4.74,13.59-7.41,19.36c-1.78,15.43-11.04,25.18-19.12,24.87c-1.17-0.05-5.61-0.43-10.38-6.14l4.12-27.59l3.63-24.3
			l5.58-58.26C327.43,222.3,334.22,219.43,340.33,220.77z"/>
		<path class="st0" d="M163.89,379.67c0.09-0.12,0.14-0.24,0.14-0.37c0-0.97-2.63-1.75-5.87-1.75c-3.24,0-5.87,0.78-5.87,1.75
			s2.63,1.75,5.87,1.75C160.97,381.05,163.32,380.46,163.89,379.67z M155.02,267.95c-7.73-13.28-21.89-22.18-38.08-22.18
			c-24.48,0-44.32,20.33-44.32,45.41c0,25.08,19.84,45.42,44.32,45.42c24.47,0,44.31-20.34,44.31-45.42
			C161.25,282.69,158.98,274.75,155.02,267.95z M313.75,310.41L309.63,338c-2.47,15.05-6.02,31.75-11.14,49.65
			c-4.9,17.12-10.43,32.54-16.02,46.14c-3.61,4.14-7.23,8.28-10.84,12.42c-10.13,11.6-20.27,23.2-30.4,34.8
			c-2.26,2.99-5.71,7.23-10.4,11.84c-9.81,9.63-30.3,29.76-56.9,28.93c-31.35-0.99-50.59-30.45-52.62-33.66
			c-10.04-9.83-20.64-21.12-31.3-34c-8.96-10.82-16.81-21.35-23.67-31.32c-4.47-13.9-8.76-29.32-12.43-46.15
			c-3.79-17.32-6.37-33.57-8.1-48.42l-2.25-11.32l7.08-0.53l-7.08-32.56c4.24-11.3,8.29-24.74,11.06-40.1
			c1.41-7.8,2.33-15.19,2.89-22.08c3.78-4.01,8.3-9.67,12.18-17.13c6.47-12.47,8.08-24.08,8.47-31.21
			c6.87-0.57,17.08-0.88,29.3,0.85c5.48,0.78,8.55,1.56,11.48,2.15c26.79,5.39,54.67-3.25,71.96-8.61
			c4.01-1.24,10.06-3.23,17.32-6.12c5.35,1.46,8.9,3.68,11.13,5.41c4.34,3.35,5.56,6.29,10.04,8.6c3.44,1.77,6.77,2.14,8.98,2.18
			c3.9-0.88,10.06-2.36,17.56-4.57c12.09-3.56,15.92-5.55,21.28-4.3c3.1,0.72,8.41,2.93,13.63,11.1
			c-0.75,10.98-1.49,21.96-2.24,32.94c3.72,9.41,7.38,19.44,10.86,30.07c4.09,12.48,7.5,24.45,10.35,35.79v19.54l-3.02,12.08H313.75
			z M281.46,291.18c0-25.08-19.84-45.41-44.32-45.41c-24.47,0-44.31,20.33-44.31,45.41c0,25.08,19.84,45.42,44.31,45.42
			C261.62,336.6,281.46,316.26,281.46,291.18z M248.37,436.2c3.07-2.45,1.31-9.33-0.22-12.85c-1.24-2.86-2.98-4.97-4.48-6.44
			c-1.39-1.29-3.23-2.76-5.54-4.13c-3.12-1.85-6.05-2.87-8.28-3.45c-2.29-0.48-5.34-1.12-8.95-1.91c-8.15-1.79-9.7-2.27-11.42-3.14
			c-2.2-1.11-5.37-3.21-8.38-7.43c-1.96-0.49-3.92-0.98-5.88-1.47c-1.74,1.63-3.59,3.3-5.57,4.98c-2.04,1.74-4.04,3.35-5.99,4.85
			c-0.83,0.53-2.95,1.71-5.88,1.69c-3.35-0.03-5.66-1.61-6.43-2.18c-1.69-1.02-3.64-2.37-5.66-4.14c-2.08-1.82-3.71-3.62-4.97-5.2
			l-4.65,2.59c-1.68,1.97-4.46,4.71-8.55,6.96c-5.94,3.26-11.52,3.75-14.46,3.79c-3.52,0.72-8.46,2.15-13.75,5.19
			c-3.94,2.26-6.95,4.77-9.13,6.88c-3.2,3.2-3.75,5.65-3.65,7.3c0.08,1.29,0.54,1.78,0.85,4.21c0.42,3.36-0.17,4.63,0.42,5.05
			c0.77,0.56,3.13-0.61,9.54-7.01c3.13-1.67,6.94-3.41,11.37-4.92c4.09-1.38,7.87-2.28,11.15-2.86c3.1-1.26,7.11-2.55,11.89-3.34
			c3.96-0.65,7.51-0.79,10.44-0.72c1.39,1.32,6.67,6,14.83,6.37c10.12,0.47,16.69-6.05,17.71-7.1c1.92-0.19,4.92-0.28,8.43,0.46
			c3.41,0.72,5.04,1.75,8.61,2.94c2.34,0.78,5.88,1.75,10.49,2.23c2.7,0.22,7.48,0.97,12.6,3.87c5.72,3.23,9,7.52,10.52,9.83
			C246.23,437.1,247.41,436.96,248.37,436.2z M204.57,378.73c0-0.96-2.63-1.75-5.87-1.75c-3.24,0-5.87,0.79-5.87,1.75
			c0,0.97,2.63,1.76,5.87,1.76C201.94,380.49,204.57,379.7,204.57,378.73z"/>
		<path class="st0" d="M43.56,316.91l2.25,11.32c-1.68,9.66-4.32,14.88-7.92,15.67c-6.12,1.33-15.01-10.11-26.68-34.33
			c-3.42-13.51-6.31-29.36-7.51-47.2c-0.57-8.43-0.7-16.41-0.53-23.86c-1.01-7.17,2.63-14.15,8.9-17.26
			c6.87-3.41,15.47-1.45,20.41,4.82l3.26,51.57L43.56,316.91z"/>
	</g>
	<g>
		<path class="st1" d="M322.96,227.85c2.08-5.32,4.8-13.33,6.61-23.34c1.99-11.01,2.23-20.95,0.15-48.28
			c-0.87-11.46-2.16-26.03-4.1-42.97c-1.46-5.6-3.72-12.37-7.29-19.68c-3.95-8.1-8.39-14.55-12.25-19.41
			c-2.18-6.06-6.85-16.62-16.68-26.73c-10.07-10.37-20.79-15.37-26.85-17.68c-0.91,0.1-3.45,0.27-6.14-1.21
			c-2.96-1.63-4.17-4.2-4.52-5.01c-4,0.09-8.71-0.17-13.89-1.21c-13.64-2.74-23.36-9.43-28.75-13.89c-4.13,0.45-9.23,0.63-15,0.03
			c-8.61-0.91-15.59-3.25-20.53-5.36c-4.53,0.82-8.25,1.15-10.79,1.29c-7.27,0.41-10.58-0.33-16,1.43
			c-3.26,1.06-3.55,1.82-6.24,2.87c-3.94,1.56-10.09,2.6-19.38-0.26c-9.15,3.04-19.74,7.26-31.06,13.17
			C78.97,27.51,69.5,33.77,61.8,39.53c0.25,3.83,0.19,10.61-2.87,18.19c-4.45,11.02-12.5,16.95-15.79,19.12
			c-3.31,5.29-6.78,11.75-9.79,19.37c-5.32,13.44-7.28,25.66-7.97,34.81c0.42,6.33,0.85,12.66,1.27,18.98
			c-0.72,4.93-1.44,9.85-2.16,14.78c-1.17,7.58-1.98,18.08-0.47,30.41c1.61,13.1,5.28,23.61,8.46,30.88
			c-4.94-6.27-13.54-8.23-20.41-4.82c-6.27,3.11-9.91,10.09-8.9,17.26C3,245.96,3.13,253.94,3.7,262.37
			c1.2,17.84,4.09,33.69,7.51,47.2c11.67,24.22,20.56,35.66,26.68,34.33c3.6-0.79,6.24-6.01,7.92-15.67
			c1.73,14.85,4.31,31.1,8.1,48.42c3.67,16.83,7.96,32.25,12.43,46.15c6.86,9.97,14.71,20.5,23.67,31.32
			c10.66,12.88,21.26,24.17,31.3,34c2.03,3.21,21.27,32.67,52.62,33.66c26.6,0.83,47.09-19.3,56.9-28.93
			c4.69-4.61,8.14-8.85,10.4-11.84c10.13-11.6,20.27-23.2,30.4-34.8c3.61-4.14,7.23-8.28,10.84-12.42
			c5.59-13.6,11.12-29.02,16.02-46.14c5.12-17.9,8.67-34.6,11.14-49.65c4.77,5.71,9.21,6.09,10.38,6.14
			c8.08,0.31,17.34-9.44,19.12-24.87c2.67-5.77,5.22-12.23,7.41-19.36c6.7-21.75,7.48-41.4,6.62-56.07
			c2.32-11.12-4.23-21.18-12.83-23.07C334.22,219.43,327.43,222.3,322.96,227.85z"/>
		<path class="st2" d="M43.56,316.91l7.08-0.53l-7.08-32.56c4.24-11.3,8.29-24.74,11.06-40.1c1.41-7.8,2.33-15.19,2.89-22.08
			c3.78-4.01,8.3-9.67,12.18-17.13c6.47-12.47,8.08-24.08,8.47-31.21c6.87-0.57,17.08-0.88,29.3,0.85
			c5.48,0.78,8.55,1.56,11.48,2.15c26.79,5.39,54.67-3.25,71.96-8.61c4.01-1.24,10.06-3.23,17.32-6.12
			c5.35,1.46,8.9,3.68,11.13,5.41c4.34,3.35,5.56,6.29,10.04,8.6c3.44,1.77,6.77,2.14,8.98,2.18c3.9-0.88,10.06-2.36,17.56-4.57
			c12.09-3.56,15.92-5.55,21.28-4.3c3.1,0.72,8.41,2.93,13.63,11.1c-0.75,10.98-1.49,21.96-2.24,32.94
			c3.72,9.41,7.38,19.44,10.86,30.07c4.09,12.48,7.5,24.45,10.35,35.79v19.54l-3.02,12.08h6.96"/>
		<path class="st3" d="M117.33,395.81c4.86-6.66,10.47-13.73,16.91-20.96c5.29-5.94,10.52-11.3,15.56-16.1
			c-2.14,2.65-6.05,8.35-6.02,15.89c0.02,2.2,0.03,5.1,1.82,7.78c4.31,6.46,14.6,5.22,15.15,5.14c0.95,1,2.4,2.45,4.27,4.07
			c5.67,4.91,8.5,7.36,11.83,7.57c4.67,0.28,8.75-3.34,14.2-8.19c1.52-1.35,2.7-2.56,3.52-3.45c0.72,0.26,7.12,2.4,12.2-1.33
			c3.94-2.9,4.57-7.5,4.91-9.99c1.2-8.82-4.14-15.71-5.62-17.49c4.89,4.89,9.96,10.36,15.07,16.46c6.79,8.09,12.54,15.97,17.4,23.31
			"/>
		<path class="st4" d="M164.03,379.3c0,0.13-0.05,0.25-0.14,0.37c-0.57,0.79-2.92,1.38-5.73,1.38c-3.24,0-5.87-0.78-5.87-1.75
			s2.63-1.75,5.87-1.75C161.4,377.55,164.03,378.33,164.03,379.3z"/>
		<path class="st4" d="M204.57,378.73c0,0.97-2.63,1.76-5.87,1.76c-3.24,0-5.87-0.79-5.87-1.76c0-0.96,2.63-1.75,5.87-1.75
			C201.94,376.98,204.57,377.77,204.57,378.73z"/>
		<path class="st5" d="M163.18,379.4c0.21,0.07,0.45,0.16,0.71,0.27c0.66,0.28,1.46,0.67,2.3,1.24c2.49,1.66,3.27,3.36,5,5.44
			c2.18,2.62,4.51,5.42,7.54,5.61c3.11,0.19,6.15-2.42,7.62-4.56c1.76-2.55,1.45-4.68,3.68-6.31c1.29-0.94,2.71-1.19,3.66-1.27"/>
		<path class="st2" d="M161.25,291.18c0,25.08-19.84,45.42-44.31,45.42c-24.48,0-44.32-20.34-44.32-45.42
			c0-25.08,19.84-45.41,44.32-45.41c16.19,0,30.35,8.9,38.08,22.18C158.98,274.75,161.25,282.69,161.25,291.18z"/>
		<path class="st2" d="M281.46,291.18c0,25.08-19.84,45.42-44.32,45.42c-24.47,0-44.31-20.34-44.31-45.42
			c0-25.08,19.84-45.41,44.31-45.41C261.62,245.77,281.46,266.1,281.46,291.18z"/>
		<line class="st2" x1="155.02" y1="267.95" x2="197.56" y2="267.95"/>
		<line class="st2" x1="282.42" y1="288.45" x2="290.81" y2="288.45"/>
		<line class="st2" x1="71.8" y1="286.11" x2="61.08" y2="286.11"/>
		<path class="st2" d="M156.07,397.97c-1.68,1.97-4.46,4.71-8.55,6.96c-5.94,3.26-11.52,3.75-14.46,3.79
			c-3.52,0.72-8.46,2.15-13.75,5.19c-3.94,2.26-6.95,4.77-9.13,6.88c-3.2,3.2-3.75,5.65-3.65,7.3c0.08,1.29,0.54,1.78,0.85,4.21
			c0.42,3.36-0.17,4.63,0.42,5.05c0.77,0.56,3.13-0.61,9.54-7.01c3.13-1.67,6.94-3.41,11.37-4.92c4.09-1.38,7.87-2.28,11.15-2.86
			c3.1-1.26,7.11-2.55,11.89-3.34c3.96-0.65,7.51-0.79,10.44-0.72c1.39,1.32,6.67,6,14.83,6.37c10.12,0.47,16.69-6.05,17.71-7.1
			c1.92-0.19,4.92-0.28,8.43,0.46c3.41,0.72,5.04,1.75,8.61,2.94c2.34,0.78,5.88,1.75,10.49,2.23c2.7,0.22,7.48,0.97,12.6,3.87
			c5.72,3.23,9,7.52,10.52,9.83c0.85,0,2.03-0.14,2.99-0.9c3.07-2.45,1.31-9.33-0.22-12.85c-1.24-2.86-2.98-4.97-4.48-6.44
			c-1.39-1.29-3.23-2.76-5.54-4.13c-3.12-1.85-6.05-2.87-8.28-3.45c-2.29-0.48-5.34-1.12-8.95-1.91c-8.15-1.79-9.7-2.27-11.42-3.14
			c-2.2-1.11-5.37-3.21-8.38-7.43c-1.96-0.49-3.92-0.98-5.88-1.47c-1.74,1.63-3.59,3.3-5.57,4.98c-2.04,1.74-4.04,3.35-5.99,4.85
			c-0.83,0.53-2.95,1.71-5.88,1.69c-3.35-0.03-5.66-1.61-6.43-2.18c-1.69-1.02-3.64-2.37-5.66-4.14c-2.08-1.82-3.71-3.62-4.97-5.2
			L156.07,397.97z"/>
		<polyline class="st2" points="32.48,226.07 35.74,277.64 43.56,316.91 45.81,328.23 		"/>
		<polyline class="st2" points="322.96,227.85 317.38,286.11 313.75,310.41 309.63,338 		"/>
	</g>
</g>
<path class="st6" d="M143.61,242.87c-1.16-0.65-13.23-7.15-34.94-7.24c-22.31-0.1-34.85,6.65-35.91,7.24"/>
<path class="st2" d="M124.64,430.56c1.32,1.6,16.88,19.69,47.64,21.42c23.92,1.34,47.24-7.76,58.94-23.09
	c-12.75,2.8-31.02,5.78-53.29,6.12C155.83,435.35,137.5,432.95,124.64,430.56z"/>
<path class="st6" d="M273.95,242.87c-1.16-0.65-13.23-7.15-34.94-7.24c-22.31-0.1-34.85,6.65-35.91,7.24"/>
</svg>
