<!-- Generator: Adobe Illustrator 25.1.0, SVG Export Plug-In  -->
<svg version="1.1" xmlns="http://www.w3.org/2000/svg" xmlns:xlink="http://www.w3.org/1999/xlink" x="0px" y="0px"
	 width="1073.37px" height="1073.37px" viewBox="0 0 1073.37 1073.37"
	 style="overflow:visible;enable-background:new 0 0 1073.37 1073.37;" xml:space="preserve">
<style type="text/css">
	.st0{fill:#FFFFFF;}
	.st1{fill:none;stroke:#FFFFFF;stroke-width:50;stroke-miterlimit:10;}
</style>
<defs>
</defs>
<g>
	<path class="st0" d="M788.21,403.27c-15.83,7.02-32.84,11.76-50.69,13.9c18.22-10.92,32.22-28.22,38.81-48.83
		c-17.05,10.11-35.94,17.46-56.04,21.42c-16.1-17.15-39.04-27.87-64.42-27.87c-48.74,0-88.26,39.52-88.26,88.26
		c0,6.92,0.78,13.65,2.29,20.11c-73.35-3.68-138.38-38.82-181.91-92.21c-7.6,13.04-11.95,28.2-11.95,44.37
		c0,30.62,15.58,57.63,39.26,73.46c-14.47-0.46-28.08-4.43-39.98-11.04c-0.01,0.37-0.01,0.74-0.01,1.11
		c0,42.76,30.42,78.43,70.8,86.54c-7.41,2.02-15.2,3.1-23.25,3.1c-5.69,0-11.22-0.55-16.6-1.58c11.23,35.06,43.82,60.58,82.44,61.29
		c-30.21,23.67-68.26,37.78-109.61,37.78c-7.12,0-14.15-0.42-21.05-1.23c39.06,25.04,85.45,39.65,135.29,39.65
		c162.34,0,251.11-134.48,251.11-251.11c0-3.83-0.08-7.63-0.25-11.42C761.41,436.51,776.38,420.97,788.21,403.27"/>
</g>
<circle class="st1" cx="536.68" cy="536.68" r="511.68"/>
</svg>
