<!-- Generator: Adobe Illustrator 25.1.0, SVG Export Plug-In  -->
<svg version="1.1" xmlns="http://www.w3.org/2000/svg" xmlns:xlink="http://www.w3.org/1999/xlink" x="0px" y="0px"
	 width="540.69px" height="4441.47px" viewBox="0 0 540.69 4441.47"
	 style="overflow:visible;enable-background:new 0 0 540.69 4441.47;" xml:space="preserve">
<style type="text/css">
	.st0{fill:none;stroke:#4A4A4A;stroke-width:20;stroke-miterlimit:10;}
</style>
<defs>
</defs>
<g>
	<g>
		<path class="st0" d="M362.28,610.96c25.92-0.4,53.16-1.2,79.08-1.61c0-81.3,0-158,0-236.72l-118.25-59.38l-1.31-116.21
			L205.6,130.46L109,186.39v125.57l105.74,62.67l1.31,117.51l118.82,65.28L362.28,610.96l-58.76,2.61l-29.67,47.01l-33-48.31H182.1
			l30.03-54.84l113.6-61.37V374.63l115.64-66.04V190.52c-34.45-21.27-70.22-42.55-104.67-63.82
			c-41.09,23.01-82.17,46.03-123.26,69.04v121.43L109,379.08c0,77.19-0.19,155.31,0,232.56c24.3,0.2,48.79,0.43,73.1,0.62"/>
		<polygon class="st0" points="112.74,433.45 159.57,462.97 268.48,402.92 375.36,462.97 486.3,406.99 528.04,341.84 493.43,285.86 
			377.39,223.77 269.5,283.83 162.62,223.77 52.69,280.77 11.97,343.37 49.63,399.86 		"/>
		<polyline class="st0" points="109,186.39 109,74.14 235.91,74.14 270.01,19.18 303.09,74.14 441.36,71.06 441.36,190.52 		"/>
		<line class="st0" x1="205.6" y1="130.46" x2="175.85" y2="74.14"/>
		<path class="st0" d="M107.67,501.65"/>
		<line class="st0" x1="107.67" y1="501.65" x2="212.13" y2="557.42"/>
		<line class="st0" x1="334.86" y1="557.42" x2="437.24" y2="498.68"/>
		<line class="st0" x1="368.02" y1="72.7" x2="336.69" y2="126.71"/>
	</g>
	<g>
		<path class="st0" d="M362.28,1148.31c25.92-0.4,53.16-1.2,79.08-1.61c0-81.3,0-158,0-236.72l-118.25-59.38l-1.31-116.21
			L205.6,667.81L109,723.74v125.57l105.74,62.67l1.31,117.51l118.82,65.28L362.28,1148.31l-58.76,2.61l-29.67,47.01l-33-48.31H182.1
			l30.03-54.84l113.6-61.37V911.98l115.64-66.04V727.87c-34.45-21.27-70.22-42.55-104.67-63.82
			c-41.09,23.01-82.17,46.03-123.26,69.04v121.43L109,916.43c0,77.19-0.19,155.31,0,232.56c24.3,0.2,48.79,0.43,73.1,0.62"/>
		<polygon class="st0" points="112.74,970.8 159.57,1000.32 268.48,940.27 375.36,1000.32 486.3,944.34 528.04,879.19 
			493.43,823.21 377.39,761.12 269.5,821.17 162.62,761.12 52.69,818.12 11.97,880.72 49.63,937.21 		"/>
		<polyline class="st0" points="109,723.74 109,611.49 235.91,611.49 270.01,556.53 303.09,611.49 441.36,608.41 441.36,727.87 		
			"/>
		<line class="st0" x1="205.6" y1="667.81" x2="175.85" y2="611.49"/>
		<path class="st0" d="M107.67,1039"/>
		<line class="st0" x1="107.67" y1="1039" x2="212.13" y2="1094.77"/>
		<line class="st0" x1="334.86" y1="1094.77" x2="437.24" y2="1036.03"/>
		<line class="st0" x1="368.02" y1="610.04" x2="336.69" y2="664.05"/>
	</g>
	<g>
		<path class="st0" d="M362.42,1685.92c25.92-0.4,53.16-1.2,79.08-1.61c0-81.3,0-158,0-236.72l-118.25-59.38l-1.31-116.21
			l-116.21-66.59l-96.6,55.93v125.57l105.74,62.67l1.31,117.51L335,1632.39L362.42,1685.92l-58.76,2.61l-29.67,47.01l-33-48.31
			h-58.76l30.03-54.84l113.6-61.37v-121.43l115.64-66.04v-118.06c-34.45-21.27-70.22-42.55-104.67-63.82
			c-41.09,23.01-82.17,46.03-123.26,69.04v121.43l-104.43,61.91c0,77.19-0.19,155.31,0,232.56c24.3,0.2,48.79,0.43,73.1,0.62"/>
		<polygon class="st0" points="112.88,1508.42 159.7,1537.94 268.62,1477.88 375.49,1537.94 486.44,1481.95 528.18,1416.81 
			493.57,1360.83 377.53,1298.74 269.63,1358.79 162.76,1298.74 52.83,1355.74 12.11,1418.34 49.77,1474.83 		"/>
		<polyline class="st0" points="109.14,1261.35 109.14,1149.11 236.04,1149.11 270.14,1094.14 303.22,1149.11 441.5,1146.02 
			441.5,1265.49 		"/>
		<line class="st0" x1="205.74" y1="1205.43" x2="175.99" y2="1149.11"/>
		<path class="st0" d="M107.81,1576.62"/>
		<line class="st0" x1="107.81" y1="1576.62" x2="212.27" y2="1632.39"/>
		<line class="st0" x1="335" y1="1632.39" x2="437.38" y2="1573.65"/>
		<line class="st0" x1="368.16" y1="1147.66" x2="336.83" y2="1201.67"/>
	</g>
	<g>
		<path class="st0" d="M362.42,2223.27c25.92-0.4,53.16-1.2,79.08-1.61c0-81.3,0-158,0-236.72l-118.25-59.38l-1.31-116.21
			l-116.21-66.59l-96.6,55.93v125.57l105.74,62.67l1.31,117.51L335,2169.74L362.42,2223.27l-58.76,2.61l-29.67,47.01l-33-48.31
			h-58.76l30.03-54.84l113.6-61.37v-121.43l115.64-66.04v-118.06c-34.45-21.27-70.22-42.55-104.67-63.82
			c-41.09,23.01-82.17,46.03-123.26,69.04v121.43l-104.43,61.91c0,77.19-0.19,155.31,0,232.56c24.3,0.2,48.79,0.43,73.1,0.62"/>
		<polygon class="st0" points="112.88,2045.77 159.7,2075.29 268.62,2015.23 375.49,2075.29 486.44,2019.3 528.18,1954.16 
			493.57,1898.18 377.53,1836.08 269.63,1896.14 162.76,1836.08 52.83,1893.09 12.11,1955.69 49.77,2012.18 		"/>
		<polyline class="st0" points="109.14,1798.7 109.14,1686.46 236.04,1686.46 270.14,1631.49 303.22,1686.46 441.5,1683.37 
			441.5,1802.84 		"/>
		<line class="st0" x1="205.74" y1="1742.78" x2="175.99" y2="1686.46"/>
		<path class="st0" d="M107.81,2113.97"/>
		<line class="st0" x1="107.81" y1="2113.97" x2="212.27" y2="2169.74"/>
		<line class="st0" x1="335" y1="2169.74" x2="437.38" y2="2111"/>
		<line class="st0" x1="368.16" y1="1685.01" x2="336.83" y2="1739.02"/>
	</g>
	<g>
		<path class="st0" d="M362.98,2761.33c25.92-0.4,53.16-1.2,79.08-1.61c0-81.3,0-158,0-236.72l-118.25-59.38l-1.31-116.21
			l-116.21-66.59l-96.6,55.93v125.57L215.44,2525l1.31,117.51l118.82,65.28L362.98,2761.33l-58.76,2.61l-29.67,47l-33-48.31H182.8
			l30.03-54.84l113.6-61.37V2525l115.64-66.04V2340.9c-34.45-21.27-70.22-42.55-104.67-63.82c-41.09,23.01-82.17,46.03-123.26,69.04
			v121.43l-104.43,61.91c0,77.19-0.19,155.31,0,232.56c24.3,0.2,48.79,0.43,73.1,0.62"/>
		<polygon class="st0" points="113.44,2583.83 160.26,2613.34 269.18,2553.29 376.05,2613.34 487,2557.36 528.74,2492.22 
			494.13,2436.23 378.09,2374.14 270.2,2434.2 163.32,2374.14 53.39,2431.14 12.67,2493.74 50.33,2550.24 		"/>
		<polyline class="st0" points="109.7,2336.76 109.7,2224.51 236.61,2224.51 270.7,2169.55 303.79,2224.51 442.06,2221.43 
			442.06,2340.9 		"/>
		<line class="st0" x1="206.3" y1="2280.83" x2="176.55" y2="2224.51"/>
		<path class="st0" d="M108.37,2652.02"/>
		<line class="st0" x1="108.37" y1="2652.02" x2="212.83" y2="2707.8"/>
		<line class="st0" x1="335.56" y1="2707.8" x2="437.94" y2="2649.05"/>
		<line class="st0" x1="368.72" y1="2223.07" x2="337.39" y2="2277.08"/>
	</g>
	<g>
		<path class="st0" d="M362.98,3298.68c25.92-0.4,53.16-1.2,79.08-1.61c0-81.3,0-158,0-236.72l-118.25-59.38l-1.31-116.21
			l-116.21-66.59l-96.6,55.93v125.57l105.74,62.67l1.31,117.51l118.82,65.28L362.98,3298.68l-58.76,2.61l-29.67,47l-33-48.31H182.8
			l30.03-54.84l113.6-61.37v-121.43l115.64-66.04v-118.06c-34.45-21.27-70.22-42.55-104.67-63.82
			c-41.09,23.01-82.17,46.03-123.26,69.04v121.43L109.7,3066.8c0,77.19-0.19,155.31,0,232.56c24.3,0.2,48.79,0.43,73.1,0.62"/>
		<polygon class="st0" points="113.44,3121.17 160.26,3150.69 269.18,3090.64 376.05,3150.69 487,3094.71 528.74,3029.56 
			494.13,2973.58 378.09,2911.49 270.2,2971.55 163.32,2911.49 53.39,2968.49 12.67,3031.09 50.33,3087.58 		"/>
		<polyline class="st0" points="109.7,2874.11 109.7,2761.86 236.61,2761.86 270.7,2706.9 303.79,2761.86 442.06,2758.78 
			442.06,2878.24 		"/>
		<line class="st0" x1="206.3" y1="2818.18" x2="176.55" y2="2761.86"/>
		<path class="st0" d="M108.37,3189.37"/>
		<line class="st0" x1="108.37" y1="3189.37" x2="212.83" y2="3245.14"/>
		<line class="st0" x1="335.56" y1="3245.14" x2="437.94" y2="3186.4"/>
		<line class="st0" x1="368.72" y1="2760.42" x2="337.39" y2="2814.43"/>
	</g>
	<g>
		<path class="st0" d="M363.12,3836.3c25.92-0.4,53.16-1.2,79.08-1.61c0-81.3,0-158,0-236.72l-118.25-59.38l-1.31-116.21
			l-116.21-66.59l-96.6,55.93v125.57l105.74,62.67l1.31,117.51l118.82,65.28L363.12,3836.3l-58.76,2.61l-29.67,47l-33-48.31h-58.76
			l30.03-54.84l113.6-61.37v-121.43l115.64-66.04v-118.06c-34.45-21.27-70.22-42.55-104.67-63.82
			c-41.09,23.01-82.17,46.03-123.26,69.04v121.43l-104.43,61.91c0,77.19-0.19,155.31,0,232.56c24.3,0.2,48.79,0.43,73.1,0.62"/>
		<polygon class="st0" points="113.58,3658.79 160.4,3688.31 269.32,3628.25 376.19,3688.31 487.14,3632.33 528.87,3567.18 
			494.27,3511.2 378.23,3449.11 270.33,3509.16 163.46,3449.11 53.53,3506.11 12.81,3568.71 50.47,3625.2 		"/>
		<polyline class="st0" points="109.84,3411.72 109.84,3299.48 236.74,3299.48 270.84,3244.52 303.92,3299.48 442.2,3296.4 
			442.2,3415.86 		"/>
		<line class="st0" x1="206.44" y1="3355.8" x2="176.69" y2="3299.48"/>
		<path class="st0" d="M108.51,3726.99"/>
		<line class="st0" x1="108.51" y1="3726.99" x2="212.97" y2="3782.76"/>
		<line class="st0" x1="335.7" y1="3782.76" x2="438.08" y2="3724.02"/>
		<line class="st0" x1="368.86" y1="3298.03" x2="337.53" y2="3352.04"/>
	</g>
	<g>
		<path class="st0" d="M363.12,4373.64c25.92-0.4,53.16-1.2,79.08-1.61c0-81.3,0-158,0-236.72l-118.25-59.38l-1.31-116.21
			l-116.21-66.59l-96.6,55.93v125.57l105.74,62.67l1.31,117.51l118.82,65.28L363.12,4373.64l-58.76,2.61l-29.67,47l-33-48.31h-58.76
			l30.03-54.84l113.6-61.37v-121.43l115.64-66.04v-118.06c-34.45-21.27-70.22-42.55-104.67-63.82
			c-41.09,23.01-82.17,46.03-123.26,69.04v121.43l-104.43,61.91c0,77.19-0.19,155.31,0,232.56c24.3,0.2,48.79,0.43,73.1,0.62"/>
		<polygon class="st0" points="113.58,4196.14 160.4,4225.66 269.32,4165.6 376.19,4225.66 487.14,4169.67 528.87,4104.53 
			494.27,4048.55 378.23,3986.46 270.33,4046.51 163.46,3986.46 53.53,4043.46 12.81,4106.06 50.47,4162.55 		"/>
		<polyline class="st0" points="109.84,3949.07 109.84,3836.83 236.74,3836.83 270.84,3781.86 303.92,3836.83 442.2,3833.74 
			442.2,3953.21 		"/>
		<line class="st0" x1="206.44" y1="3893.15" x2="176.69" y2="3836.83"/>
		<path class="st0" d="M108.51,4264.34"/>
		<line class="st0" x1="108.51" y1="4264.34" x2="212.97" y2="4320.11"/>
		<line class="st0" x1="335.7" y1="4320.11" x2="438.08" y2="4261.37"/>
		<line class="st0" x1="368.86" y1="3835.38" x2="337.53" y2="3889.39"/>
	</g>
</g>
</svg>
