<!-- Generator: Adobe Illustrator 25.1.0, SVG Export Plug-In  -->
<svg version="1.1" xmlns="http://www.w3.org/2000/svg" xmlns:xlink="http://www.w3.org/1999/xlink" x="0px" y="0px"
	 width="855.22px" height="1906.13px" viewBox="0 0 855.22 1906.13"
	 style="overflow:visible;enable-background:new 0 0 855.22 1906.13;" xml:space="preserve">
<style type="text/css">
	.st0{opacity:0.5;}
	.st1{fill:none;stroke:#E8E8E8;stroke-width:25;stroke-miterlimit:10;}
</style>
<defs>
</defs>
<g class="st0">
	<path class="st1" d="M571.17,963.57c41.15-0.64,82.3-1.28,123.45-1.92c-3.14-125.13-6.28-250.26-9.42-375.39L508.98,490.9
		l-2.07-184.51L322.4,200.66l-155.48,89.14v199.02l169.99,99.51l2.07,186.58l188.65,103.66L571.17,963.57l-93.29,4.15l-47.12,74.63
		l-52.39-76.7h-93.29l47.68-87.07l180.36-97.44v-192.8l181.49-103.66V296.03c-54.69-33.78-109.39-67.55-164.08-101.33
		c-65.23,36.54-130.47,73.08-195.7,109.62v192.8l-167.92,99.51c0.8,122.69,1.6,245.38,2.41,368.07
		c38.59,0.31,77.17,0.63,115.76,0.94"/>
	<polygon class="st1" points="174.96,681.74 249.31,728.6 422.23,633.25 591.92,728.6 768.08,639.72 834.34,536.28 779.4,447.4 
		595.16,348.81 423.85,444.17 254.15,348.81 79.61,439.32 14.97,538.71 74.76,628.4 	"/>
	<polyline class="st1" points="166.91,289.81 166.91,111.24 370.51,111.24 424.66,23.97 477.18,111.24 694.62,106.39 694.62,296.03 
			"/>
	<line class="st1" x1="322.4" y1="200.66" x2="275.16" y2="111.24"/>
	<path class="st1" d="M166.91,790.02"/>
	<line class="st1" x1="166.91" y1="790.02" x2="332.76" y2="878.57"/>
	<line class="st1" x1="527.64" y1="878.57" x2="690.19" y2="785.3"/>
	<line class="st1" x1="580.27" y1="108.94" x2="530.54" y2="194.7"/>
</g>
<g class="st0">
	<path class="st1" d="M577.28,1804.59c41.15-0.64,82.3-1.28,123.45-1.92c-3.14-125.13-6.28-250.26-9.42-375.39l-176.21-95.36
		l-2.07-184.51l-184.51-105.73l-155.48,89.14v199.02l169.99,99.51l2.07,186.58l188.65,103.66L577.28,1804.59l-93.29,4.15
		l-47.12,74.63l-52.39-76.7h-93.29l47.68-87.07l180.36-97.44v-192.8l181.49-103.66v-188.65c-54.69-33.78-109.39-67.55-164.08-101.33
		c-65.23,36.54-130.47,73.08-195.7,109.62v192.8l-167.92,99.51c0.8,122.69,1.6,245.38,2.41,368.07
		c38.59,0.31,77.17,0.63,115.76,0.94"/>
	<polygon class="st1" points="181.07,1522.75 255.42,1569.62 428.34,1474.27 598.03,1569.62 774.19,1480.73 840.45,1377.3 
		785.51,1288.42 601.27,1189.83 429.96,1285.18 260.26,1189.83 85.72,1280.33 21.08,1379.73 80.87,1469.42 	"/>
	<polyline class="st1" points="173.02,1130.83 173.02,952.26 376.62,952.26 430.76,864.99 483.29,952.26 700.73,947.41 
		700.73,1137.04 	"/>
	<line class="st1" x1="328.51" y1="1041.68" x2="281.27" y2="952.26"/>
	<path class="st1" d="M173.02,1631.03"/>
	<line class="st1" x1="173.02" y1="1631.03" x2="338.87" y2="1719.59"/>
	<line class="st1" x1="533.74" y1="1719.59" x2="696.3" y2="1626.32"/>
	<line class="st1" x1="586.38" y1="949.96" x2="536.65" y2="1035.72"/>
</g>
</svg>
