<!-- Generator: Adobe Illustrator 25.1.0, SVG Export Plug-In  -->
<svg version="1.1" xmlns="http://www.w3.org/2000/svg" xmlns:xlink="http://www.w3.org/1999/xlink" x="0px" y="0px"
	 width="1073.37px" height="1073.37px" viewBox="0 0 1073.37 1073.37"
	 style="overflow:visible;enable-background:new 0 0 1073.37 1073.37;" xml:space="preserve">
<style type="text/css">
	.st0{fill:none;stroke:#FFFFFF;stroke-width:50;stroke-miterlimit:10;}
	.st1{fill:#FFFFFF;}
	.st2{fill:none;stroke:#FFFFFF;stroke-width:10;stroke-miterlimit:10;}
</style>
<defs>
</defs>
<circle class="st0" cx="536.68" cy="536.68" r="511.68"/>
<g id="XMLID_2_">
	<g>
		<path class="st1" d="M811.81,359.9c0,21.54,0,43.09,0,64.63c-3.34,6.8-8.75,15.92-17.31,25.2c-8.42,9.12-16.98,15.24-23.46,19.18
			c-8.68,2.56-21.39,5.24-36.86,4.93c-13.06-0.27-23.94-2.61-31.84-4.93c-6.16-2.93-15.97-8.53-25.13-18.63
			c-10.07-11.09-14.65-22.43-16.76-29.03c-1.5-16.94-2.38-35.45-2.24-55.32c0.13-16.54,0.95-32.1,2.24-46.56
			c2.17-7.03,6.32-17.55,14.52-28.48c8.16-10.89,17.11-17.89,23.29-22.02c6.75-3.14,19.15-7.86,35.35-8.11
			c14.99-0.24,26.74,3.44,33.5,6.12c5.21,2.46,14.77,7.8,23.05,18.16c8.8,11.02,11.69,22.13,12.76,27.75c-9.89,0-19.77,0-29.65,0
			c-0.86-2.79-2.65-7.32-6.45-11.88c-3.56-4.28-7.43-6.83-9.96-8.24c-4.63-1.86-12.59-4.36-22.72-4.28
			c-9.11,0.08-16.35,2.23-20.82,3.95c-3.63,3.29-8.04,7.91-12.17,14.07c-4.69,7.01-7.41,13.62-9.02,18.62
			c-2.28,12.01-4.1,26.41-4.36,42.73c-0.28,17.36,1.28,32.66,3.39,45.28c1.41,4.03,4.12,10.17,9.37,16.37
			c4.61,5.43,9.48,8.91,12.97,11.02c5.83,1.64,14.08,3.33,24.07,3.32c9.94-0.01,18.16-1.69,23.97-3.32
			c2.77-1.17,7.57-3.63,11.98-8.46c4.81-5.28,6.76-10.76,7.57-13.67l-0.56-34.84h-40.22V359.9H811.81z"/>
		<path class="st1" d="M683.69,749.52c0,6.8,0,13.6,0,20.4c-7.26,2.36-17.81,4.92-30.71,5.14c-14.66,0.24-26.54-2.62-34.27-5.14
			c-10.79-6.01-23.68-14.35-36.96-25.79c-12.67-10.91-22.43-21.81-29.76-31.15l-79.72-116.43h-47.65
			c0.58,35.41,1.15,70.82,1.73,106.23c0.09,4.52,0.89,12.87,5.94,21.49c6.38,10.86,15.77,15.73,21.51,18.71
			c13.66,7.08,26.77,7.67,34.06,7.39v19.55H329.31c0-6.52,0-13.03,0-19.55c5.09,0.86,12.17,1.2,19.94-1.15
			c2.51-0.76,19.02-6.04,25.81-22.2c2.56-6.1,2.85-11.61,2.78-14.89c0-90.36,0-180.72,0-271.08c0.04-3.22-0.34-8.33-3.01-13.68
			c-6.68-13.34-22.17-17.09-27.4-18.36c-4.03-0.98-10.28-1.96-18.12-1.11v-22.09c59.07,0,118.13,0,177.19,0
			c4.81,0.33,72.18,5.89,97.63,57.28c7.98,16.11,9.42,31.83,9.07,43.35c-0.71,11.8-3.66,31.92-16.16,52.85
			c-9.16,15.32-19.68,24.78-24.05,28.47c-18.97,16.02-39.03,22.08-50.45,24.56c22.27,32.67,44.54,65.33,66.81,97.99
			c10.82,14.31,21.68,24.54,29.89,31.39c10.13,8.44,19.12,15.82,33.17,21.3C664.91,747.87,676.14,749.19,683.69,749.52z
			 M563.24,492.3c1.08-6.32,2.33-19.35-3.7-33.72c-7.29-17.37-20.79-26.08-26.62-29.72c-11.45-7.17-22.41-9.61-28.83-10.56
			c-26.47,0-52.95,0-79.41,0v150.03c20.43,0,40.87,0,61.29,0c6.57-0.02,17.1-0.91,28.47-6.05c16.85-7.63,25.57-20.12,31.68-28.87
			C556.82,518.1,561.26,502.91,563.24,492.3z"/>
	</g>
	<g>
		<path class="st2" d="M329.31,385.81v22.09c7.83-0.85,14.08,0.13,18.12,1.11c5.24,1.26,20.72,5.02,27.4,18.36
			c2.67,5.35,3.05,10.46,3.01,13.68c0,90.36,0,180.72,0,271.08c0.07,3.28-0.21,8.8-2.78,14.89c-6.79,16.16-23.3,21.44-25.81,22.2
			c-7.76,2.34-14.85,2.01-19.94,1.15c0,6.52,0,13.03,0,19.55h158.56v-19.55c-7.29,0.28-20.4-0.3-34.06-7.39
			c-5.74-2.98-15.13-7.85-21.51-18.71c-5.06-8.62-5.86-16.97-5.94-21.49c-0.58-35.42-1.15-70.82-1.73-106.23h47.65l79.72,116.43
			c7.33,9.34,17.08,20.24,29.76,31.15c13.28,11.43,26.17,19.77,36.96,25.79c7.73,2.51,19.61,5.38,34.27,5.14
			c12.91-0.22,23.46-2.77,30.71-5.14c0-6.8,0-13.59,0-20.4c-7.56-0.33-18.79-1.65-31.3-6.54c-14.05-5.48-23.04-12.86-33.17-21.3
			c-8.21-6.85-19.06-17.08-29.89-31.39c-22.27-32.66-44.54-65.33-66.81-97.99c11.42-2.48,31.49-8.53,50.45-24.56
			c4.37-3.68,14.89-13.15,24.05-28.47c12.5-20.93,15.45-41.05,16.16-52.85c0.35-11.52-1.09-27.25-9.07-43.35
			c-25.45-51.4-92.81-56.95-97.63-57.28C447.44,385.81,388.37,385.81,329.31,385.81z"/>
		<path class="st2" d="M424.68,418.3v150.03c20.43,0,40.87,0,61.29,0c6.57-0.02,17.1-0.91,28.47-6.05
			c16.85-7.63,25.57-20.12,31.68-28.87c10.69-15.3,15.13-30.49,17.11-41.1c1.08-6.32,2.33-19.35-3.7-33.72
			c-7.29-17.37-20.79-26.08-26.62-29.72c-11.45-7.17-22.41-9.61-28.83-10.56C477.62,418.3,451.15,418.3,424.68,418.3z"/>
		<path class="st2" d="M773.28,312.79c9.89,0,19.77,0,29.65,0c-1.07-5.62-3.96-16.73-12.76-27.75
			c-8.28-10.36-17.84-15.7-23.05-18.16c-6.76-2.68-18.51-6.36-33.5-6.12c-16.21,0.25-28.61,4.98-35.35,8.11
			c-6.18,4.12-15.13,11.13-23.29,22.02c-8.2,10.94-12.36,21.45-14.52,28.48c-1.28,14.45-2.11,30.02-2.24,46.56
			c-0.15,19.88,0.74,38.38,2.24,55.32c2.11,6.6,6.69,17.94,16.76,29.03c9.16,10.09,18.98,15.7,25.13,18.63
			c7.9,2.33,18.78,4.66,31.84,4.93c15.47,0.31,28.18-2.38,36.86-4.93c6.48-3.94,15.05-10.05,23.46-19.18
			c8.55-9.28,13.96-18.4,17.31-25.2c0-21.54,0-43.09,0-64.63h-71.49v23.55h40.22l0.56,34.84c-0.82,2.91-2.76,8.39-7.57,13.67
			c-4.4,4.82-9.21,7.29-11.98,8.46c-5.81,1.64-14.03,3.31-23.97,3.32c-9.98,0.01-18.24-1.68-24.07-3.32
			c-3.48-2.11-8.36-5.59-12.97-11.02c-5.25-6.2-7.96-12.34-9.37-16.37c-2.11-12.62-3.66-27.92-3.39-45.28
			c0.26-16.32,2.08-30.72,4.36-42.73c1.61-5,4.33-11.61,9.02-18.62c4.13-6.16,8.54-10.78,12.17-14.07
			c4.47-1.71,11.71-3.86,20.82-3.95c10.13-0.08,18.09,2.42,22.72,4.28c2.53,1.41,6.4,3.95,9.96,8.24
			C770.63,305.47,772.42,310,773.28,312.79z"/>
	</g>
</g>
</svg>
